Coordinates
version=1
nRows=4
nColumns=53
inDegrees=yes

Units are S.I. units (second, meters, Newtons, ...)
If the header above contains a line with 'inDegrees', this indicates whether rotational values are in degrees (yes) or radians (no).

endheader
time	pelvis_tilt	pelvis_list	pelvis_rot	pelvis_tx	pelvis_ty	pelvis_tz	hip_flex_r	hip_add_r	hip_rot_r	pf_flex_r	pf_rot_r	pf_tilt_r	pf_tx_r	pf_ty_r	pf_tz_r	knee_flex_r	knee_add_r	knee_rot_r	knee_tx_r	knee_ty_r	knee_tz_r	ankle_flex_r	subt_angle_r	mtp_angle_r	hip_flex_l	hip_add_l	hip_rot_l	pf_l_r3	pf_l_tx	pf_l_ty	knee_flex_l	ankle_flex_l	subt_angle_l	mtp_angle_l	lumbar_ext	lumbar_latbend	lumbar_rot	neck_ext	neck_latbend	neck_rot	arm_add_r	arm_flex_r	arm_rot_r	elbow_flex_r	pro_sup_r	wrist_flex_r	arm_add_l	arm_flex_l	arm_rot_l	elbow_flex_l	pro_sup_l	wrist_flex_l
      5.00000000	    -10.96902123	     -2.26101262	      8.50244003	      1.08280039	      0.87416834	      0.21766517	     11.41451091	      0.20238845	    -12.32393617	      0.00000000	      0.00000000	      0.00000000	      0.00092502	      0.00008727	      0.00006981	      5.68195516	      0.00001988	      0.00008900	     -0.00000157	     -0.00001189	     -0.00000183	      9.34655448	     -2.49168778	      0.00000000	     13.09320300	     -0.90353674	     -9.05086120	      0.06513700	      0.00077405	     -0.00730790	      0.06136408	      0.04246979	     -0.19592132	      0.00000000	      5.70661279	     -0.04189118	    -12.40371886	      0.00000000	      0.00000000	      0.00000000	      0.00000000	      0.00000000	      0.00000000	      0.00000000	     60.00000000	      0.00000000	      0.00000000	      0.00000000	      0.00000000	      0.00000000	     60.00000000	      0.00000000
      5.00400000	    -10.95806563	     -2.26024552	      8.49841044	      1.08280508	      0.87417253	      0.21764536	     11.40407156	      0.20234285	    -12.31807763	      0.00000000	      0.00000000	      0.00000000	      0.00092502	      0.00008727	      0.00006981	      5.68444355	      0.00002044	      0.00008848	     -0.00000157	     -0.00001189	     -0.00000183	      9.31482766	     -2.52519225	      0.00000000	     13.07285221	     -0.90222040	     -8.65234242	      0.06513700	      0.00077405	     -0.00730790	      0.06014295	      0.04196738	     -0.19719726	      0.00000000	      5.69404643	     -0.03517043	    -12.41104286	      0.00000000	      0.00000000	      0.00000000	      0.00000000	      0.00000000	      0.00000000	      0.00000000	     60.00000000	      0.00000000	      0.00000000	      0.00000000	      0.00000000	      0.00000000	     60.00000000	      0.00000000
      5.00800000	    -10.89440209	     -2.23753268	      8.46905094	      1.08298828	      0.87425519	      0.21762914	     11.30851868	      0.19627702	    -12.26952423	      0.00000000	      0.00000000	      0.00000000	      0.00092502	      0.00008727	      0.00006981	      5.66063463	      0.00002135	      0.00008912	     -0.00000154	     -0.00001189	     -0.00000185	      9.34569582	     -2.64741643	      0.00000000	     12.90591853	     -0.89456993	     -7.44540442	      0.06513700	      0.00077405	     -0.00730790	      0.05484078	      0.04053319	     -0.19124925	      0.00000000	      5.64610954	     -0.04134180	    -12.36292111	      0.00000000	      0.00000000	      0.00000000	      0.00000000	      0.00000000	      0.00000000	      0.00000000	     60.00000000	      0.00000000	      0.00000000	      0.00000000	      0.00000000	      0.00000000	     60.00000000	      0.00000000
      5.01200000	    -10.90009582	     -2.23328140	      8.44961026	      1.08301858	      0.87424626	      0.21762723	     11.30721477	      0.19588048	    -12.22452072	      0.00000000	      0.00000000	      0.00000000	      0.00092502	      0.00008727	      0.00006981	      5.64402831	      0.00002122	      0.00008882	     -0.00000158	     -0.00001185	     -0.00000187	      9.28127565	     -2.62225329	      0.00000000	     12.90140606	     -0.89592817	     -7.14978437	      0.06513700	      0.00077405	     -0.00730790	      0.05410429	      0.04117744	     -0.19089539	      0.00000000	      5.66026141	     -0.04126254	    -12.34305737	      0.00000000	      0.00000000	      0.00000000	      0.00000000	      0.00000000	      0.00000000	      0.00000000	     60.00000000	      0.00000000	      0.00000000	      0.00000000	      0.00000000	      0.00000000	     60.00000000	      0.00000000
